<svg xmlns="http://www.w3.org/2000/svg" width="179.11" height="179.11" viewBox="0 0 179.11 179.11">
  <g id="partner_app_logo" transform="translate(-23.138 -23.19)">
    <g id="Group_7795" data-name="Group 7795" transform="translate(23.138 23.19)">
      <g id="Partner_App" data-name="Partner App">
        <rect id="Rectangle_17510" data-name="Rectangle 17510" width="179" height="179" rx="30" fill="#f4f4f4"/>
        <path id="Rectangle_17511" data-name="Rectangle 17511" d="M0,0H179.11a0,0,0,0,1,0,0V13.336a30,30,0,0,1-30,30H30a30,30,0,0,1-30-30V0A0,0,0,0,1,0,0Z" transform="translate(0 135.774)" fill="#dd4a48"/>
        <g id="Group_7465" data-name="Group 7465" transform="translate(52.317 97.634)">
          <path id="Path_14492" data-name="Path 14492" d="M5.013-9.538v-.2H8.638a3.981,3.981,0,0,0,2.006-.463,2.86,2.86,0,0,0,1.213-1.425,6.346,6.346,0,0,0,.406-2.45,6.4,6.4,0,0,0-.406-2.456,2.891,2.891,0,0,0-1.213-1.437,3.938,3.938,0,0,0-2.006-.469H.512v-.313h8.75a12.222,12.222,0,0,1,3.65.494,5.211,5.211,0,0,1,2.462,1.525,3.927,3.927,0,0,1,.888,2.656,3.972,3.972,0,0,1-.831,2.625,4.738,4.738,0,0,1-2.4,1.456,13.616,13.616,0,0,1-3.769.456ZM.512,0V-.312H9.388V0Zm2.5-.163V-18.575H6.887V-.163Zm12.375.35a4.154,4.154,0,0,1-2.006-.406,2.541,2.541,0,0,1-1.075-1.094,4.617,4.617,0,0,1-.444-1.538,16.022,16.022,0,0,1-.106-1.763q-.006-.912-.075-1.769a5.277,5.277,0,0,0-.344-1.544,2.27,2.27,0,0,0-.913-1.094,3.32,3.32,0,0,0-1.787-.406H5.013V-9.6h5.625a6.26,6.26,0,0,1,2.756.506,3.572,3.572,0,0,1,1.519,1.331,4.958,4.958,0,0,1,.656,1.819,13.318,13.318,0,0,1,.162,1.988q.006.994.037,1.825A3.441,3.441,0,0,0,16.038-.8a.891.891,0,0,0,.887.5,3.031,3.031,0,0,0,.738-.088A3.277,3.277,0,0,0,18.275-.6l.113.288a4.585,4.585,0,0,1-1.1.331A9.32,9.32,0,0,1,15.388.188ZM25.8.25a6.881,6.881,0,0,1-3.131-.694,5.19,5.19,0,0,1-2.175-2.031A6.314,6.314,0,0,1,19.7-5.75a6.478,6.478,0,0,1,.769-3.275,5.068,5.068,0,0,1,2.125-2.031A6.726,6.726,0,0,1,25.7-11.75a5.665,5.665,0,0,1,3.05.75,4.681,4.681,0,0,1,1.781,1.95,5.8,5.8,0,0,1,.581,2.562H21.375V-6.8H27.4q0-.788-.05-1.6a8.614,8.614,0,0,0-.219-1.506,2.811,2.811,0,0,0-.506-1.113,1.124,1.124,0,0,0-.925-.419A1.38,1.38,0,0,0,24.65-11,3.039,3.039,0,0,0,24-9.794a9.055,9.055,0,0,0-.337,1.744,20.109,20.109,0,0,0-.1,2.05,20.353,20.353,0,0,0,.119,2.269,7.37,7.37,0,0,0,.431,1.856,2.967,2.967,0,0,0,.863,1.25,2.178,2.178,0,0,0,1.425.45,4.376,4.376,0,0,0,2.837-.938,4.922,4.922,0,0,0,1.625-2.375h.325A5.388,5.388,0,0,1,29.381-.819,5.526,5.526,0,0,1,25.8.25Zm7.312,0V-3.675h.313a5.549,5.549,0,0,0,.987,1.912A4.569,4.569,0,0,0,35.95-.525a4.377,4.377,0,0,0,1.962.438,4.179,4.179,0,0,0,1.363-.206,2.094,2.094,0,0,0,.944-.613,1.486,1.486,0,0,0,.344-.994,1.271,1.271,0,0,0-.519-1.069,4.768,4.768,0,0,0-1.338-.675q-.819-.281-1.731-.581a10.1,10.1,0,0,1-1.737-.756,3.881,3.881,0,0,1-1.344-1.213,3.389,3.389,0,0,1-.519-1.956,3.5,3.5,0,0,1,.475-1.8,3.474,3.474,0,0,1,1.338-1.294,4.116,4.116,0,0,1,2.037-.481,4.241,4.241,0,0,1,1.581.281,4.365,4.365,0,0,1,1.244.744l1.375-1.05H41.7v3.5h-.312a6.264,6.264,0,0,0-.881-1.544,4.364,4.364,0,0,0-1.362-1.163A3.867,3.867,0,0,0,37.25-11.4a2.9,2.9,0,0,0-1.119.2,1.829,1.829,0,0,0-.756.55,1.26,1.26,0,0,0-.275.8,1.232,1.232,0,0,0,.538,1.044,5.266,5.266,0,0,0,1.381.688q.844.294,1.788.606a10.72,10.72,0,0,1,1.787.775,4.149,4.149,0,0,1,1.381,1.2,3.124,3.124,0,0,1,.538,1.888,3.543,3.543,0,0,1-.644,2.169A3.934,3.934,0,0,1,40.2-.181,5.52,5.52,0,0,1,38.037.25a4.955,4.955,0,0,1-1.781-.313,4.89,4.89,0,0,1-1.469-.875L33.375.25Zm15.3-.075a3.428,3.428,0,0,1-1.844-.406,2.046,2.046,0,0,1-.862-1.1A4.948,4.948,0,0,1,45.475-2.9V-14a9.717,9.717,0,0,0,1.838-.194,5.578,5.578,0,0,0,1.65-.556V-2.325A2.818,2.818,0,0,0,49.188-1a.786.786,0,0,0,.737.388,1.89,1.89,0,0,0,1.194-.519,3.643,3.643,0,0,0,.994-1.406l.288.125A4.345,4.345,0,0,1,50.938-.55,4.157,4.157,0,0,1,48.412.175ZM43.688-11.188V-11.5h7.95v.312ZM58.125-5.4a14.948,14.948,0,0,1,.188-2.419,7.4,7.4,0,0,1,.613-2.025,3.6,3.6,0,0,1,1.125-1.388,2.844,2.844,0,0,1,1.712-.506,2.682,2.682,0,0,1,1.45.375,2.509,2.509,0,0,1,.912.969,2.66,2.66,0,0,1,.313,1.256,2.167,2.167,0,0,1-.575,1.5,1.925,1.925,0,0,1-1.5.637,2.062,2.062,0,0,1-1.506-.569,1.846,1.846,0,0,1-.581-1.369,1.99,1.99,0,0,1,.588-1.488A2.039,2.039,0,0,1,62.35-11a2.124,2.124,0,0,1,1.056.263,2.023,2.023,0,0,1,.738.688,1.677,1.677,0,0,1,.269.913h-.3a2.271,2.271,0,0,0-.288-1.119A2.255,2.255,0,0,0,63-11.1a2.417,2.417,0,0,0-1.275-.325,2.51,2.51,0,0,0-1.519.469A3.526,3.526,0,0,0,59.144-9.65a7.351,7.351,0,0,0-.625,1.931A12.5,12.5,0,0,0,58.313-5.4Zm.188-6.1V-.312h1.9V0h-7.05V-.312h1.675V-11.188H53.163V-11.5ZM71.938.25a6.189,6.189,0,0,1-3.256-.825,5.721,5.721,0,0,1-2.113-2.188,6.133,6.133,0,0,1-.744-2.987,6.133,6.133,0,0,1,.744-2.988,5.721,5.721,0,0,1,2.113-2.187,6.189,6.189,0,0,1,3.256-.825,6.156,6.156,0,0,1,3.25.825,5.688,5.688,0,0,1,2.1,2.187,6.175,6.175,0,0,1,.738,2.988,6.175,6.175,0,0,1-.738,2.987,5.688,5.688,0,0,1-2.1,2.188A6.156,6.156,0,0,1,71.938.25Zm0-.313a1.54,1.54,0,0,0,1.144-.463,3.232,3.232,0,0,0,.725-1.263,8.739,8.739,0,0,0,.381-1.825A19.6,19.6,0,0,0,74.3-5.75a19.544,19.544,0,0,0-.113-2.144,8.733,8.733,0,0,0-.381-1.819,3.232,3.232,0,0,0-.725-1.262,1.54,1.54,0,0,0-1.144-.462,1.556,1.556,0,0,0-1.156.462,3.232,3.232,0,0,0-.725,1.262,8.732,8.732,0,0,0-.381,1.819,19.544,19.544,0,0,0-.113,2.144,19.6,19.6,0,0,0,.113,2.138,8.738,8.738,0,0,0,.381,1.825,3.232,3.232,0,0,0,.725,1.263A1.556,1.556,0,0,0,71.938-.063Z" transform="translate(4 28)" fill="#2c272e"/>
          <path id="Path_14493" data-name="Path 14493" d="M7.05.25A6.881,6.881,0,0,1,3.919-.444,5.19,5.19,0,0,1,1.744-2.475,6.314,6.314,0,0,1,.95-5.75a6.478,6.478,0,0,1,.769-3.275,5.068,5.068,0,0,1,2.125-2.031A6.726,6.726,0,0,1,6.95-11.75,5.665,5.665,0,0,1,10-11a4.681,4.681,0,0,1,1.781,1.95,5.8,5.8,0,0,1,.581,2.562H2.625V-6.8H8.65q0-.788-.05-1.6a8.614,8.614,0,0,0-.219-1.506,2.811,2.811,0,0,0-.506-1.113,1.124,1.124,0,0,0-.925-.419A1.38,1.38,0,0,0,5.9-11a3.039,3.039,0,0,0-.65,1.206A9.055,9.055,0,0,0,4.912-8.05,20.109,20.109,0,0,0,4.813-6a20.353,20.353,0,0,0,.119,2.269,7.37,7.37,0,0,0,.431,1.856,2.967,2.967,0,0,0,.863,1.25,2.178,2.178,0,0,0,1.425.45,4.376,4.376,0,0,0,2.837-.938,4.922,4.922,0,0,0,1.625-2.375h.325A5.388,5.388,0,0,1,10.631-.819,5.526,5.526,0,0,1,7.05.25Z" transform="translate(-9.316 28.366)" fill="#dd4a48"/>
        </g>
        <path id="Path_14491" data-name="Path 14491" d="M4.6-4.96V0H1.18V-14.14H6.72a5.38,5.38,0,0,1,3.84,1.25,4.421,4.421,0,0,1,1.32,3.37,4.643,4.643,0,0,1-.59,2.35A4.091,4.091,0,0,1,9.54-5.55a6.165,6.165,0,0,1-2.82.59ZM6.34-7.7Q8.4-7.7,8.4-9.52q0-1.86-2.06-1.86H4.6V-7.7ZM22.32-2.58h-5.3L16.14,0h-3.6l5.18-14.04h3.94L26.84,0H23.2Zm-.88-2.6-1.76-5.2L17.9-5.18ZM35.42,0,32.36-5.34h-.78V0H28.16V-14.14H34a6.3,6.3,0,0,1,2.84.58,4.005,4.005,0,0,1,1.74,1.59,4.555,4.555,0,0,1,.58,2.31,4.106,4.106,0,0,1-.85,2.62,4.345,4.345,0,0,1-2.47,1.48L39.2,0ZM31.58-7.68H33.7a2.135,2.135,0,0,0,1.5-.45,1.737,1.737,0,0,0,.48-1.33,1.763,1.763,0,0,0-.49-1.32,2.053,2.053,0,0,0-1.49-.48H31.58Zm19.46-6.46v2.72H47.2V0H43.76V-11.42h-3.8v-2.72ZM65.04,0H61.62L55.9-8.68V0H52.48V-14.14H55.9l5.72,8.76v-8.76h3.42Zm5.78-11.42v2.96H75.6v2.58H70.82v3.14H76.2V0H67.4V-14.14h8.8v2.72ZM85.4,0,82.34-5.34h-.78V0H78.14V-14.14h5.84a6.3,6.3,0,0,1,2.84.58,4.005,4.005,0,0,1,1.74,1.59,4.555,4.555,0,0,1,.58,2.31,4.106,4.106,0,0,1-.85,2.62,4.345,4.345,0,0,1-2.47,1.48L89.18,0ZM81.56-7.68h2.12a2.135,2.135,0,0,0,1.5-.45,1.737,1.737,0,0,0,.48-1.33,1.763,1.763,0,0,0-.49-1.32,2.053,2.053,0,0,0-1.49-.48H81.56Zm22.06,5.1h-5.3L97.44,0h-3.6l5.18-14.04h3.94L108.14,0H104.5Zm-.88-2.6-1.76-5.2L99.2-5.18Zm10.14.22V0h-3.42V-14.14H115a5.38,5.38,0,0,1,3.84,1.25,4.421,4.421,0,0,1,1.32,3.37,4.643,4.643,0,0,1-.59,2.35,4.091,4.091,0,0,1-1.75,1.62,6.165,6.165,0,0,1-2.82.59Zm1.74-2.74q2.06,0,2.06-1.82,0-1.86-2.06-1.86h-1.74V-7.7Zm10.64,2.74V0h-3.42V-14.14h5.54a5.379,5.379,0,0,1,3.84,1.25,4.421,4.421,0,0,1,1.32,3.37,4.643,4.643,0,0,1-.59,2.35,4.091,4.091,0,0,1-1.75,1.62,6.165,6.165,0,0,1-2.82.59ZM127-7.7q2.06,0,2.06-1.82,0-1.86-2.06-1.86h-1.74V-7.7Z" transform="translate(25.851 159.931)" fill="#fff"/>
      </g>
      <g id="Group_7467" data-name="Group 7467" transform="translate(45.051 25.43)">
        <g id="Group_7466" data-name="Group 7466" transform="translate(0.658)">
          <path id="Path_13571" data-name="Path 13571" d="M351.939,184.62a1.907,1.907,0,0,1,1.82,2.191q.014,5.7,0,11.41c0,1.471-.707,2.149-2.207,2.153q-4.564.013-9.128,0a3.685,3.685,0,0,1-4-4.046c0-.334,0-.668,0-1.148l-3.712,1.986c.541.575,1.072,1.1,1.56,1.664a5.992,5.992,0,0,1-6.486,9.608c-.366-.126-.734-.433-1,.241a6,6,0,0,1-9.834,1.876c-.151-.145-.314-.278-.52-.459a6.132,6.132,0,0,1-3.819,3.545,5.379,5.379,0,0,1-3.919-.122c-.544-.246-.765-.138-1.1.4-1.152,1.823-2.33,3.67-4.462,4.534a5.836,5.836,0,0,1-7.725-3.918.85.85,0,0,0-.89-.739,5.628,5.628,0,0,1-5.3-4.488c-.121-.45-.3-.535-.719-.564a5.649,5.649,0,0,1-5.405-4.466c-.12-.478-.335-.6-.8-.623a5.708,5.708,0,0,1-5.408-4.579c-.268-1.161-1.413-1.4-2.241-1.956a4.735,4.735,0,0,0-.985-.374,3.794,3.794,0,0,1-2.809,3.518,4.8,4.8,0,0,1-1.357.113c-2.891,0-5.782-.035-8.671.021a2.491,2.491,0,0,1-2.552-1.31v-12.6c.4-1.154.777-1.424,2.066-1.5a2.147,2.147,0,0,1,1.862,2.423c.036,2.554.005,5.108.014,7.662,0,1.3.049,1.344,1.321,1.347,1.672,0,3.345.012,5.017,0,1-.009,1.1-.108,1.112-1.1.018-2.311.006-4.622.006-6.932q0-12.04,0-24.081c0-.274-.018-.549,0-.821.05-.757-.319-1.011-1.042-1-1.794.023-3.588,0-5.381.012-.938.007-1.024.095-1.03,1.07-.016,2.615.012,5.23-.013,7.845a2.425,2.425,0,0,1-.886,2.219,2.154,2.154,0,0,1-1.919.289c-.6-.207-.9-.641-1.127-1.491v-12.6a2.313,2.313,0,0,1,2.413-1.37c2.98.034,5.96,0,8.94.017a3.583,3.583,0,0,1,3.909,3.068c.133.553.427.446.772.469a48.321,48.321,0,0,0,12.995-1.343,82.436,82.436,0,0,1,11.294-1.962,25.174,25.174,0,0,1,11.393,1.913,4.669,4.669,0,0,0,1.848.372q11.95-.017,23.9,0a1.2,1.2,0,0,0,1.265-.735,3,3,0,0,1,2.618-1.725c3.434-.07,6.87-.072,10.305-.035a1.745,1.745,0,0,1,1.826,1.955q.032,5.838,0,11.677c-.006,1.2-.54,1.739-1.814,2-.846.327-1.316-.207-1.73-.792a2.912,2.912,0,0,1-.387-1.754c0-2.647.008-5.294-.006-7.941-.006-1.061-.1-1.149-1.145-1.156q-2.6-.016-5.2,0c-.99.008-1.085.107-1.1,1.111-.017,1.339-.005,2.677-.005,4.016q0,13.508,0,27.017c0,.365,0,.73.019,1.095a.627.627,0,0,0,.692.67q3.011.043,6.023,0c.71-.009.713-.529.715-1.03.011-2.708,0-5.415.006-8.123a3.636,3.636,0,0,1,.282-1.693A1.573,1.573,0,0,1,351.939,184.62Z" transform="translate(-260.278 -158.458)" fill="#2c272e"/>
          <path id="Path_13572" data-name="Path 13572" d="M260.278,281.114V280.2a1.833,1.833,0,0,1,1.891-1.6,2.083,2.083,0,0,1,1.937,1.763,2.035,2.035,0,0,1-1,2,1.788,1.788,0,0,1-.952.263A1.763,1.763,0,0,1,260.278,281.114Z" transform="translate(-260.278 -259.658)" fill="#010101"/>
          <path id="Path_13573" data-name="Path 13573" d="M788.844,204.161c-1.371.3-1.823.847-1.826,2.282-.006,3.012-.022,6.024.014,9.035.008.643-.166.815-.806.8-2.159-.041-4.32-.033-6.479,0-.562.007-.781-.1-.779-.733q.031-16.564,0-33.129c0-.605.176-.766.767-.757q3.239.05,6.479,0c.63-.011.823.156.815.8-.034,2.981-.02,5.963-.013,8.944,0,1.432.464,1.992,1.828,2.276q0,1.707,0,3.413c-.1.3-.381.366-.62.482a1.494,1.494,0,0,0-.93,1.429,1.554,1.554,0,0,0,.98,1.4c.206.1.481.116.573.389Q788.844,202.478,788.844,204.161Z" transform="translate(-697.182 -177.999)" fill="#dd4a48"/>
          <path id="Path_13574" data-name="Path 13574" d="M831.9,283.257c-1.154-.237-1.793-.866-1.818-1.787-.024-.9.56-1.518,1.814-1.915a2.235,2.235,0,0,1,1.6,1.043C834.095,281.779,833.4,282.949,831.9,283.257Z" transform="translate(-740.234 -260.461)" fill="#010101"/>
          <path id="Path_13575" data-name="Path 13575" d="M386.918,183.08a23.206,23.206,0,0,0-6.129,4.751c-4.073,4.059-8.18,8.083-12.254,12.142a6.476,6.476,0,0,0,7.643,10.386c3.053-1.693,6.08-3.432,9.12-5.15,1.374-.777,2.772-1.515,4.117-2.339a5.783,5.783,0,0,1,2.4-.644c2.644-.362,4.486.655,6.339,2.552,5.442,5.568,11.106,10.92,16.684,16.356a3.1,3.1,0,0,1,1.052,1.56,2.384,2.384,0,0,1-1.022,2.541,2.45,2.45,0,0,1-2.816-.161,9.009,9.009,0,0,1-.668-.62q-5.566-5.4-11.131-10.809a2.428,2.428,0,0,0-1.367-.841,1.717,1.717,0,0,0-1.8.806,1.662,1.662,0,0,0,.023,1.957,5.48,5.48,0,0,0,.726.814q4.314,4.2,8.639,8.4a2.943,2.943,0,0,1,.957,1.512,2.386,2.386,0,0,1-.961,2.482,2.46,2.46,0,0,1-2.659.017,7.167,7.167,0,0,1-.889-.782q-6.551-6.356-13.1-12.716a2.757,2.757,0,0,0-1.345-.886,1.7,1.7,0,0,0-1.832.7,1.622,1.622,0,0,0-.132,1.882,4.208,4.208,0,0,0,.757.9q4.373,4.274,8.764,8.53a2.6,2.6,0,0,1,.935,2.164,2.186,2.186,0,0,1-1.47,2.012,2.281,2.281,0,0,1-2.469-.436c-.81-.736-1.585-1.511-2.365-2.28a5.955,5.955,0,0,0-4.206-1.892c-.429,0-.562-.18-.666-.547a5.6,5.6,0,0,0-5.459-4.512c-.459-.041-.581-.215-.692-.624a5.61,5.61,0,0,0-5.432-4.42.659.659,0,0,1-.715-.616,5.471,5.471,0,0,0-4.057-4.258,5.534,5.534,0,0,0-5.815,1.654,26.814,26.814,0,0,0-1.757,2.1c-.24.312-.408.349-.731.138a9.151,9.151,0,0,0-3.266-1.336c-.362-.071-.441-.246-.421-.557.01-.151,0-.3,0-.456,0-8.488.01-16.977-.017-25.465,0-.724.114-1.01.916-.952a45.81,45.81,0,0,0,13.182-1.346c3.2-.7,6.434-1.279,9.669-1.815A16.662,16.662,0,0,1,386.918,183.08Z" transform="translate(-342.121 -178.937)" fill="#fee0ae"/>
          <path id="Path_13576" data-name="Path 13576" d="M467.961,214.729c.584-.029,1.01-.021,1.427-.077a1.771,1.771,0,0,0,.2-3.478,5.148,5.148,0,0,0-1.171-.124c-3.528-.009-7.056.006-10.584-.014a4.189,4.189,0,0,0-2.164.572q-6.966,3.96-13.948,7.89a2.933,2.933,0,0,1-3.417.014,2.741,2.741,0,0,1-.53-4.017,15.44,15.44,0,0,1,1.2-1.245c4.151-4.107,8.325-8.192,12.45-12.325a14.322,14.322,0,0,1,10.556-4.371q12.272.007,24.545-.017c.75,0,.88.235.878.918q-.033,12.364,0,24.727a1.078,1.078,0,0,1-.661,1.123c-1.778.922-3.536,1.881-5.293,2.841-.344.188-.579.282-.93-.062q-6.121-6.008-12.277-11.98A3.826,3.826,0,0,1,467.961,214.729Z" transform="translate(-409.241 -191.374)" fill="#fedb9f"/>
          <path id="Path_13577" data-name="Path 13577" d="M271.818,197.056q0-1.829,0-3.658c1.491-.446,1.825-.9,1.826-2.491,0-2.83.021-5.659-.015-8.488-.008-.651.192-.81.818-.8,2.1.038,4.2.05,6.3,0,.759-.02.955.18.953.947q-.042,15.105-.018,30.211c0,.943-.02,1.887.008,2.829.013.45-.083.644-.592.638-2.282-.026-4.564-.032-6.845,0-.59.009-.614-.259-.612-.712q.021-4.335,0-8.671c-.005-1.344-.49-1.9-1.828-2.187q0-1.958,0-3.916c1.155-.23,1.8-.857,1.822-1.783C273.656,198.072,273.072,197.454,271.818,197.056Z" transform="translate(-269.99 -177.963)" fill="#dd4a48"/>
          <path id="Path_13578" data-name="Path 13578" d="M519.736,485.866a2.052,2.052,0,0,1-1.728-3.08,8.914,8.914,0,0,1,2.067-2.509,2.1,2.1,0,0,1,3.32,2.192,7.32,7.32,0,0,1-2.589,3.19A1.622,1.622,0,0,1,519.736,485.866Z" transform="translate(-477.144 -429.136)" fill="#fedb9f"/>
          <path id="Path_13579" data-name="Path 13579" d="M402.952,389.483a2.094,2.094,0,0,1-1.985-2.986,8.117,8.117,0,0,1,2.177-2.645,2.094,2.094,0,0,1,3.286,2.107,6.7,6.7,0,0,1-2.668,3.33A1.1,1.1,0,0,1,402.952,389.483Z" transform="translate(-378.6 -347.932)" fill="#fedb9f"/>
          <path id="Path_13580" data-name="Path 13580" d="M439.722,419.584a1.828,1.828,0,0,1,.433-1.27,19.491,19.491,0,0,1,1.554-1.893,2.129,2.129,0,0,1,3.286,2.709,9.56,9.56,0,0,1-1.9,2.18,1.948,1.948,0,0,1-2.212.172A2.1,2.1,0,0,1,439.722,419.584Z" transform="translate(-411.422 -375.106)" fill="#fedb9f"/>
          <path id="Path_13581" data-name="Path 13581" d="M484.487,449.784a1.777,1.777,0,0,1-.311,1.12,11.554,11.554,0,0,1-1.907,2.3,2.108,2.108,0,0,1-3.213-2.655,10.837,10.837,0,0,1,1.955-2.376,1.922,1.922,0,0,1,2.281-.267A2.06,2.06,0,0,1,484.487,449.784Z" transform="translate(-444.309 -402.052)" fill="#fedb9f"/>
        </g>
        <ellipse id="Ellipse_255" data-name="Ellipse 255" cx="2.255" cy="2.255" rx="2.255" ry="2.255" transform="translate(0 18.944)"/>
        <ellipse id="Ellipse_256" data-name="Ellipse 256" cx="2.255" cy="2.255" rx="2.255" ry="2.255" transform="translate(90.061 18.69)"/>
      </g>
    </g>
  </g>
</svg>
