<svg xmlns="http://www.w3.org/2000/svg" xmlns:xlink="http://www.w3.org/1999/xlink" width="130" height="130" viewBox="0 0 130 130">
  <defs>
    <clipPath id="clip-Balance">
      <rect width="130" height="130"/>
    </clipPath>
  </defs>
  <g id="Balance" clip-path="url(#clip-Balance)">
    <g id="Group_7463" data-name="Group 7463" transform="translate(-847.221 -36.68)">
      <path id="Path_13557" data-name="Path 13557" d="M911.841,161.147c-16.768,0-33.537-.119-50.3.055a13.266,13.266,0,0,1-13.318-13.25c.131-25.418.047-50.836.053-76.254A12.809,12.809,0,0,1,858.6,58.932a10.407,10.407,0,0,1,2.912-.143,2.074,2.074,0,0,1,1.948,2.136,2.167,2.167,0,0,1-1.853,2.249c-.917.152-1.859.2-2.751.44a8.308,8.308,0,0,0,1.113,16.233,22.717,22.717,0,0,0,3.18.207q45.845,0,91.691,0c2.02,0,2.021,0,2.021-2.019q0-5.856,0-11.711c0-2.215-.393-2.687-2.544-3.146a2.143,2.143,0,0,1-1.772-2.422,2.044,2.044,0,0,1,2.084-1.987,6.306,6.306,0,0,1,6.663,6.124q.073,6.787,0,13.573c-.013,1.176.261,1.766,1.546,1.594,3.6-.483,7.223,2.682,7.023,7.023-.182,3.94-.032,7.895-.042,11.842,0,1.8-.742,2.619-2.273,2.594-1.461-.023-2.159-.823-2.167-2.567-.014-3.726,0-7.452-.008-11.179-.007-2.636-.663-3.278-3.328-3.278q-49.971,0-99.942.025a13.78,13.78,0,0,1-8.517-2.447c-.761-.556-.891-.227-.866.492.007.222,0,.444,0,.666q0,31.873,0,63.745a9.832,9.832,0,0,0,1.954,6.613c1.951,2.356,4.554,3.107,7.464,3.112q10.047.018,20.094,0h78.783c.444,0,.887,0,1.331,0,2.276-.021,3-.737,3.018-3.055.019-3.549,0-7.1.007-10.647,0-.444-.015-.889.021-1.33a1.986,1.986,0,0,1,2.181-1.994,1.937,1.937,0,0,1,2.216,1.949c.039,4.657.137,9.319-.044,13.971-.122,3.162-3.068,5.542-6.4,5.544Q937.591,161.152,911.841,161.147Z" transform="translate(0 4.474)" fill="#201d22"/>
      <path id="Path_13558" data-name="Path 13558" d="M940.885,127.387c-4.966,0-9.932.019-14.9,0-7.734-.038-14.289-6.748-14.529-14.46a15.163,15.163,0,0,1,12.555-15.368A12.043,12.043,0,0,1,926,97.407q15.1-.015,30.195,0a6.3,6.3,0,0,1,6.592,6.613q.022,8.447,0,16.893a6.312,6.312,0,0,1-6.464,6.475C951.172,127.4,946.029,127.388,940.885,127.387Zm.245-25.549c-4.7,0-9.4-.041-14.1.01-7.573.082-12.6,6.566-10.567,13.566,1.326,4.561,5.37,7.479,10.729,7.515,9.4.062,18.8.027,28.2.01,2.2,0,2.943-.778,2.947-2.988q.016-7.581,0-15.162c-.006-2.2-.764-2.944-2.976-2.948C950.618,101.831,945.874,101.838,941.13,101.838Z" transform="translate(13.427 12.68)" fill="#201d22"/>
      <path id="Path_13559" data-name="Path 13559" d="M898.163,52.686q-13.235,0-26.469,0c-2.477,0-3.179.692-3.181,3.147-.006,6.65,0,13.3-.007,19.952,0,1.7-.884,2.613-2.363,2.523-1.326-.079-2.06-.9-2.065-2.419-.016-4.567-.007-9.134-.007-13.7,0-2.528-.013-5.054,0-7.582a6.322,6.322,0,0,1,5.9-6.359c1.237-.09,2.478-.145,3.717-.147q24.674-.015,49.347,0c1.107,0,2.215.055,3.318.139a6.307,6.307,0,0,1,6.031,6.5q.016,10.575,0,21.149a2.208,2.208,0,0,1-3.11,2.263c-1.135-.451-1.333-1.4-1.331-2.5.018-6.474.01-12.947.008-19.421,0-2.988-.565-3.547-3.581-3.547Q911.264,52.684,898.163,52.686Z" transform="translate(3.365 2.212)" fill="#dd4a48"/>
      <path id="Path_13560" data-name="Path 13560" d="M908.844,37.684q13.637,0,27.274,0c4.183,0,6.806,2.61,6.81,6.8q.013,16.7,0,33.394c0,1.873-.925,2.83-2.507,2.625a1.966,1.966,0,0,1-1.914-2.009c-.045-1.062-.018-2.128-.018-3.192q0-14.9,0-29.8c0-2.72-.644-3.369-3.375-3.369q-26.476-.005-52.952,0c-2.2,0-2.66.393-3.133,2.559a2.12,2.12,0,0,1-2.439,1.741,2.038,2.038,0,0,1-1.971-2.1,6.307,6.307,0,0,1,6.29-6.636Q894.874,37.662,908.844,37.684Z" transform="translate(5.602)" fill="#dd4a48"/>
      <path id="Path_13561" data-name="Path 13561" d="M896.78,55.247c3.416,0,6.832-.01,10.247,0,1.734.007,2.386.611,2.594,2.329.658,5.411,3.315,8.776,7.943,9.991.894.235,1.836.28,2.747.457a2.159,2.159,0,0,1,2.067,2.451c.016,1.331.029,2.662-.009,3.992a2.214,2.214,0,0,1-4.427.047c-.125-2.054-.147-1.988-2.159-2.653A14.842,14.842,0,0,1,905.518,60.94c-.258-.992-.664-1.275-1.619-1.268q-7.187.051-14.372,0c-.992-.008-1.343.356-1.6,1.3a14.616,14.616,0,0,1-10.8,11,1.816,1.816,0,0,0-1.612,2.188c.074,1.8-.823,2.666-2.422,2.542a1.894,1.894,0,0,1-1.964-1.934c-.063-1.594-.062-3.195,0-4.789a1.986,1.986,0,0,1,1.844-1.949,24.02,24.02,0,0,0,3.392-.6,10.069,10.069,0,0,0,7.3-8.76c.058-.44.131-.877.2-1.314a2.117,2.117,0,0,1,2.4-2.1C889.772,55.234,893.276,55.248,896.78,55.247Z" transform="translate(4.854 3.729)" fill="#dd4a48"/>
      <path id="Path_13562" data-name="Path 13562" d="M918.516,110.809a6.478,6.478,0,1,1,6.356,6.568A6.313,6.313,0,0,1,918.516,110.809Zm8.337.2a1.914,1.914,0,0,0-1.782-2.08,2.109,2.109,0,0,0-2.05,1.891,1.9,1.9,0,0,0,1.794,1.929A1.732,1.732,0,0,0,926.853,111.01Z" transform="translate(14.927 14.172)" fill="#dd4a48"/>
    </g>
  </g>
</svg>
