<svg xmlns="http://www.w3.org/2000/svg" xmlns:xlink="http://www.w3.org/1999/xlink" width="130" height="130" viewBox="0 0 130 130">
  <defs>
    <clipPath id="clip-Customer">
      <rect width="130" height="130"/>
    </clipPath>
  </defs>
  <g id="Customer" clip-path="url(#clip-Customer)">
    <g id="Group_7457" data-name="Group 7457" transform="translate(-305.994 -22.909)">
      <path id="Path_13541" data-name="Path 13541" d="M345.375,140.626a6.7,6.7,0,0,1-6.914-5.22,3.723,3.723,0,0,0-3.978-3.074c-3.781.03-7.5.04-11.218.04l-10.647-.013A5.334,5.334,0,0,1,307,126.721l0-2.669q-.009-12.929,0-25.86a15.232,15.232,0,0,1,14.8-14.849h0c.941,0,1.843-.025,2.746-.05.863-.024,1.726-.048,2.589-.048a23.141,23.141,0,0,1,4.087.3,14.843,14.843,0,0,1,10.665,7.507,3.179,3.179,0,0,0,2.656,1.825,3.408,3.408,0,0,0,2.352-1.137,28.329,28.329,0,0,1,20.2-8.408s1.12.01,1.442.01c.884,0,1.767-.016,2.651-.03.858-.016,1.717-.03,2.575-.03a35.314,35.314,0,0,1,4.765.263,28.563,28.563,0,0,1,16.528,8.079,3.55,3.55,0,0,0,2.451,1.23A3.28,3.28,0,0,0,400.231,91c3.171-5.137,7.523-7.642,13.3-7.658.851,0,1.7-.031,2.559-.062s1.684-.061,2.523-.061a18.64,18.64,0,0,1,3.408.263c6.833,1.263,11.035,5.24,12.845,12.16.037.139.078.276.123.412V128.13a6.058,6.058,0,0,1-4.255,4.108,6.426,6.426,0,0,1-1.606.121l-10.781.008q-5.383,0-10.767-.03h0a3.706,3.706,0,0,0-3.955,3.021,6.68,6.68,0,0,1-6.868,5.268l-26.543,0Zm24.611-53.817a37.041,37.041,0,0,0-6.656.541c-12.821,2.336-21.459,12.742-21.5,25.894q-.02,7.485,0,14.972l0,4.276c0,3.235,1.333,4.556,4.6,4.558l49.461,0a4.484,4.484,0,0,0,3.33-1.1A4.037,4.037,0,0,0,400.235,133c-.03-2.577,0-5.21.022-7.755.048-4.8.1-9.769-.225-14.69a25.421,25.421,0,0,0-23.557-23.473C374.277,86.939,372.126,86.809,369.986,86.809Zm-44.542-.078a26.011,26.011,0,0,0-6.046.714c-5.388,1.289-8.765,5.859-8.814,11.927-.023,2.95-.018,5.9-.013,8.848l.008,7.415c0,3.18.009,6.358-.021,9.537a3.66,3.66,0,0,0,.918,2.7,3.545,3.545,0,0,0,2.583.94c3.478-.022,6.915-.032,10.351-.032s6.87.01,10.306.032h.017a3.227,3.227,0,0,0,3.522-3.721c-.216-4-.223-8.28-.024-13.462a30.84,30.84,0,0,1,1.487-8.509,12.961,12.961,0,0,0-1.005-10.2,11.115,11.115,0,0,0-7.186-5.47A26.492,26.492,0,0,0,325.445,86.731ZM417,86.849c-1.137,0-2.246.048-3.476.106a11.463,11.463,0,0,0-9.348,4.787,12.227,12.227,0,0,0-1.745,11.522c1.36,3.855,1.453,8.023,1.542,12.055.055,2.5-.015,5.069-.083,7.554q-.033,1.209-.063,2.416a3.445,3.445,0,0,0,.861,2.6,3.221,3.221,0,0,0,2.4.909c3.8-.017,7.572-.025,11.347-.025q4.663,0,9.324.015h0a3.739,3.739,0,0,0,2.784-1.016,3.991,3.991,0,0,0,.988-2.916c-.046-3-.039-6.065-.031-9.028l.013-7.564c.008-2.989.016-5.981-.017-8.97-.074-6.738-4.091-11.3-10.745-12.215A27.436,27.436,0,0,0,417,86.849Z" transform="translate(0 2.376)" fill="#201d22"/>
      <path id="Path_13542" data-name="Path 13542" d="M369.121,72.744l-.5,0a19.569,19.569,0,0,1-13.889-5.939,20.385,20.385,0,0,1,14.385-34.9h.144a20.718,20.718,0,0,1,20.291,20.658c-.111,10.939-9.267,20.18-20,20.18Zm.142-37.136A16.794,16.794,0,0,0,352.4,52.125a16.584,16.584,0,0,0,16.44,16.951l.422.005c9.272,0,16.4-7.118,16.573-16.559.172-9.281-6.913-16.552-16.482-16.913l-.045,0Z" transform="translate(1.93)" fill="#dd4a48"/>
      <path id="Path_13543" data-name="Path 13543" d="M325.223,72.008a11.947,11.947,0,0,1-8.571-3.523,12.245,12.245,0,0,1-3.479-8.7,12.12,12.12,0,1,1,12.062,12.221Zm.04-20.61a8.608,8.608,0,0,0-8.461,8.554,8.6,8.6,0,0,0,8.4,8.429l.268,0a8.49,8.49,0,0,0-.129-16.979Z" transform="translate(0.286 0.735)" fill="#dd4a48"/>
      <path id="Path_13544" data-name="Path 13544" d="M412.288,72.009a12.007,12.007,0,0,1-12.215-12.04,12.21,12.21,0,0,1,3.483-8.683,12.149,12.149,0,1,1,8.749,20.723Zm-.1-20.611a8.543,8.543,0,0,0-6.048,2.6,8.4,8.4,0,0,0-2.441,6,8.488,8.488,0,0,0,16.974,0,8.408,8.408,0,0,0-2.439-6,8.547,8.547,0,0,0-6.047-2.6Z" transform="translate(4.311 0.735)" fill="#dd4a48"/>
    </g>
  </g>
</svg>
