<svg xmlns="http://www.w3.org/2000/svg" xmlns:xlink="http://www.w3.org/1999/xlink" width="130" height="130" viewBox="0 0 130 130">
  <defs>
    <clipPath id="clip-Low_stock_products">
      <rect width="130" height="130"/>
    </clipPath>
  </defs>
  <g id="Low_stock_products" clip-path="url(#clip-Low_stock_products)">
    <g id="Group_7462" data-name="Group 7462" transform="translate(-717.454 -41.089)">
      <g id="Group_7461" data-name="Group 7461" transform="translate(718.454 42.089)">
        <path id="Path_13555" data-name="Path 13555" d="M727.437,169.952c-.083,0-.169,0-.255-.013a1.975,1.975,0,0,1-1.8-2.02c-.29-4.239-.418-4.372-4.554-4.737-1.468-.13-2.421-1.023-2.372-2.225.047-1.182,1.049-1.968,2.55-2,3.919-.085,4.368-.546,4.368-4.483V45.532l-.006-.457a7.659,7.659,0,0,1,.041-1.235,1.84,1.84,0,0,1,1.8-1.739c.092-.008.181-.012.266-.012a1.9,1.9,0,0,1,1.888,1.353,5.294,5.294,0,0,1,.226,1.969V155.179c0,3.177.6,3.776,3.788,3.776l110.2,0c.245,0,.488,0,.732.019a2.061,2.061,0,0,1,.351,4.1,8.251,8.251,0,0,1-1.68.119H733.035q-.363,0-.725.008c-1.863.05-2.649.845-2.714,2.748-.009.226-.007.454-.007.682a6.271,6.271,0,0,1-.135,1.642A2.032,2.032,0,0,1,727.437,169.952Z" transform="translate(-718.454 -42.089)" fill="#201d22"/>
        <path id="Path_13556" data-name="Path 13556" d="M828.889,127.8a.824.824,0,0,1-.573-.283l-.459-.475c-1.378-1.423-2.8-2.9-4.127-4.4a.76.76,0,0,1-.239-.75,1.022,1.022,0,0,1,.89-.5c2.215-.253,2.369-.431,2.343-2.718-.011-1.073-.01-2.147-.007-3.221a66.492,66.492,0,0,0-.784-12.63,50.74,50.74,0,0,0-39.611-40.4,41.591,41.591,0,0,0-8.587-.986H760.1l-.363-.016H740.363a4.177,4.177,0,0,1-1.55-.2,2.077,2.077,0,0,1,.375-4,3.11,3.11,0,0,1,.614-.048l.517.006,22.253-.016q6.938,0,13.874.023a55.048,55.048,0,0,1,53.389,43.633c1.226,5.864,1.178,11.808,1.132,17.557,0,.2,0,.4,0,.6,0,.333.01.666-.007,1a1.373,1.373,0,0,0,.316,1.069,1.284,1.284,0,0,0,.969.35l.133,0c.166-.01.331-.016.5-.016a4.479,4.479,0,0,1,.639.041.96.96,0,0,1,.8.5.629.629,0,0,1-.177.618c-1.482,1.7-3.093,3.338-4.651,4.923l-.128.131A.661.661,0,0,1,828.889,127.8Z" transform="translate(-714.445 -38.907)" fill="#dd4a48"/>
      </g>
      <rect id="Rectangle_17505" data-name="Rectangle 17505" width="4.218" height="73.734" rx="1.741" transform="translate(741.453 80.034)" fill="#201d22"/>
      <rect id="Rectangle_17506" data-name="Rectangle 17506" width="4.218" height="73.734" rx="1.741" transform="translate(763.252 80.034)" fill="#201d22"/>
      <rect id="Rectangle_17507" data-name="Rectangle 17507" width="4.218" height="59.311" rx="1.741" transform="translate(787.474 94.457)" fill="#201d22"/>
      <rect id="Rectangle_17508" data-name="Rectangle 17508" width="4.218" height="43.566" rx="1.741" transform="translate(809.24 110.203)" fill="#201d22"/>
      <rect id="Rectangle_17509" data-name="Rectangle 17509" width="4.218" height="17.673" rx="1.741" transform="translate(830.746 136.365)" fill="#dd4a48"/>
    </g>
  </g>
</svg>
