<svg xmlns="http://www.w3.org/2000/svg" xmlns:xlink="http://www.w3.org/1999/xlink" width="130" height="130" viewBox="0 0 130 130">
  <defs>
    <clipPath id="clip-Order">
      <rect width="130" height="130"/>
    </clipPath>
  </defs>
  <g id="Order" clip-path="url(#clip-Order)">
    <g id="Group_7455" data-name="Group 7455" transform="translate(-25.146 -18.508)">
      <path id="Path_13526" data-name="Path 13526" d="M154.146,58.079q-2.451,9.478-4.9,18.956c-.695,2.7-1.37,5.4-2.063,8.1a2.152,2.152,0,0,1-1.81,1.828,1.911,1.911,0,0,1-1.992-.994,2.3,2.3,0,0,1-.1-1.925Q146.5,71.475,149.687,58.9c.96-3.765.711-4.095-3.2-4.095q-30.781,0-61.563-.007a13.77,13.77,0,0,1-2.36-.162,1.79,1.79,0,0,1-1.574-1.951,1.858,1.858,0,0,1,1.782-1.911,12.06,12.06,0,0,1,1.372-.026c21.1,0,42.208.034,63.312-.038,3.229-.011,5.45,1.133,6.688,4.118Z" transform="translate(0 0)" fill="#201d22"/>
      <path id="Path_13527" data-name="Path 13527" d="M102.995,104.131q-16.612,0-33.226,0a6.751,6.751,0,0,0-2.1.238,3.755,3.755,0,0,0-2.633,4.046,3.838,3.838,0,0,0,3.419,3.282c.537.047,1.082.022,1.623.022q37.035,0,74.07,0c2.848,0,4.848,1.424,5.555,3.919a5.3,5.3,0,0,1-4.82,6.707c-1.039.051-2.082.013-3.123.016-1.409,0-1.409,0-.9,1.28a9.427,9.427,0,0,1-6.524,12.724A9.452,9.452,0,0,1,123.3,123.7c.511-1.341.529-1.342-.871-1.342q-18.237,0-36.473-.021c-1.089,0-1.373.148-.919,1.279A9.421,9.421,0,0,1,73.7,136.261a9.046,9.046,0,0,1-6.725-7.607,8.125,8.125,0,0,1,.652-5.123c.454-.916.221-1.147-.738-1.31-6.206-1.06-10.363-4.558-12.055-10.665A14.311,14.311,0,0,1,66.7,93.717c1.612-.208,1.616-.209,1.226-1.728Q61.763,68.005,55.619,44.016c-.262-1.028-.694-1.5-1.781-1.389a15.031,15.031,0,0,1-2.246.008,4.114,4.114,0,0,0-2.923.764,4.5,4.5,0,0,1-2.849.75c-4.83,0-9.66.015-14.49-.008-3.321-.016-5.174-1.9-5.179-5.2,0-1.29-.012-2.581,0-3.872a4.457,4.457,0,0,1,4.6-4.551c5.2-.015,10.409,0,15.613-.01a3.822,3.822,0,0,1,2.572.785,3.358,3.358,0,0,0,2.422.731c2-.04,4-.016,6-.011a7.545,7.545,0,0,1,7.662,5.9c1.026,3.858,2.041,7.719,3,11.595.231.933.625,1.313,1.61,1.264,1.5-.076,3-.04,4.495-.009a1.965,1.965,0,1,1,.208,3.923c-2.739.283-5.491.064-8.236.122-.666.014-1.333,0-2,0-1.509.008-1.523.022-1.158,1.453q1.215,4.776,2.44,9.549,3.963,15.4,7.931,30.809c.686,2.664,1.653,3.448,4.393,3.448q28.978.01,57.957,0c2.7,0,3.674-.758,4.367-3.324.314-1.164.571-2.344.9-3.5a2.036,2.036,0,1,1,3.894,1.071c-.352,1.455-.687,2.917-1.117,4.35a7.474,7.474,0,0,1-7.356,5.466Q119.669,104.138,102.995,104.131Zm36.877,14.1c1.581,0,3.163.024,4.743-.01a1.1,1.1,0,0,0,1.179-1.182,1.115,1.115,0,0,0-1.186-1.178c-.5-.034-1-.026-1.5-.026H70.32c-.5,0-1,.012-1.5-.011a8.01,8.01,0,0,1-7.9-7.249,7.859,7.859,0,0,1,6.059-8.207,17.806,17.806,0,0,1,2.349-.28c.541-.05.695-.255.553-.816-.4-1.584-.835-1.849-2.6-1.582a10.412,10.412,0,0,0-8.8,11.462c.416,4.446,4.5,8.787,8.939,9.034a23.97,23.97,0,0,0,7.571-.347,5.8,5.8,0,0,1,2.969.059,13.747,13.747,0,0,0,3.583.369q21.975-.018,43.949-.009a19.914,19.914,0,0,0,5.328-.422,4.705,4.705,0,0,1,2.348-.028A25.824,25.824,0,0,0,139.872,118.228ZM38.566,40.024c2.369,0,4.738-.022,7.106.011.909.012,1.287-.349,1.255-1.254-.036-1.037-.027-2.078,0-3.116.018-.833-.354-1.231-1.187-1.23q-7.168.006-14.337,0c-.946,0-1.339.513-1.33,1.418.009.872.036,1.747-.009,2.617-.058,1.106.378,1.59,1.524,1.566C33.911,39.991,36.239,40.025,38.566,40.024Zm43.1,87.235a5.342,5.342,0,1,0-10.684-.105,5.343,5.343,0,1,0,10.684.105Zm45.064,0a5.436,5.436,0,0,0,5.432,5.373,5.594,5.594,0,0,0,5.391-5.366,5.476,5.476,0,0,0-5.517-5.428A5.247,5.247,0,0,0,126.728,127.262ZM54.685,35.886l0,.044c-.749,0-1.5.044-2.247-.01-.961-.071-1.439.171-1.429,1.284.009,1.057.379,1.416,1.39,1.33.7-.06,1.414-.012,2.122-.012,3.842,0,3.84,0,4.783,3.677.661,2.577,1.317,5.156,2,7.726.2.761,1.312,1.14,2.292.8.875-.3.288-.946.187-1.355-.848-3.429-1.761-6.843-2.649-10.263A3.693,3.693,0,0,0,57.8,36.04C56.765,35.927,55.722,35.933,54.685,35.886Z" transform="translate(0 0)" fill="#201d22"/>
      <path id="Path_13528" data-name="Path 13528" d="M129.305,88.895c-1.8-.042-2.629-1.153-2.277-2.616,1.29-5.37,2.611-10.732,3.923-16.1.454-1.855.891-3.715,1.376-5.562.394-1.5,1.365-2.146,2.617-1.825,1.123.288,1.65,1.369,1.3,2.807q-2.595,10.65-5.212,21.295C130.75,88.052,130.213,88.9,129.305,88.895Z" transform="translate(0 0)" fill="#dd4a48"/>
      <path id="Path_13529" data-name="Path 13529" d="M86.032,86.734a1.984,1.984,0,0,1-3.914.607c-.883-3.379-1.7-6.774-2.538-10.165-.956-3.874-1.929-7.745-2.849-11.629-.435-1.836.748-3.159,2.389-2.749,1.1.275,1.414,1.184,1.648,2.143q1.376,5.635,2.755,11.268Q84.69,81,85.851,85.783C85.939,86.144,85.991,86.514,86.032,86.734Z" transform="translate(0 0)" fill="#dd4a48"/>
      <path id="Path_13530" data-name="Path 13530" d="M100.984,86.259c.048,1.7-.521,2.531-1.78,2.621-1.308.093-2.124-.657-2.276-2.236-.222-2.312-.37-4.631-.559-6.946-.387-4.754-.765-9.508-1.179-14.259-.129-1.477.526-2.554,1.752-2.682a2.012,2.012,0,0,1,2.3,2.049q.883,10.414,1.74,20.83C101,85.843,100.984,86.051,100.984,86.259Z" transform="translate(0 0)" fill="#dd4a48"/>
      <path id="Path_13531" data-name="Path 13531" d="M117.752,65.84c-.379,4.511-.777,9.23-1.173,13.949q-.293,3.478-.578,6.956c-.119,1.444-.922,2.223-2.208,2.137a2.056,2.056,0,0,1-1.826-2.49c.475-5.8.932-11.594,1.406-17.39.115-1.407.215-2.819.418-4.215.216-1.495.943-2.118,2.17-2.033,1.2.083,1.784.859,1.791,2.377C117.753,65.3,117.752,65.464,117.752,65.84Z" transform="translate(0 0)" fill="#dd4a48"/>
    </g>
  </g>
</svg>
