<svg xmlns="http://www.w3.org/2000/svg" xmlns:xlink="http://www.w3.org/1999/xlink" width="130" height="130" viewBox="0 0 130 130">
  <defs>
    <clipPath id="clip-Products">
      <rect width="130" height="130"/>
    </clipPath>
  </defs>
  <g id="Products" clip-path="url(#clip-Products)">
    <g id="Group_7456" data-name="Group 7456" transform="translate(-177.642 -30.008)">
      <path id="Path_13532" data-name="Path 13532" d="M284.308,159.474c-13.6-.063-27.571-.095-41.522-.095-13.694,0-27.774.03-41.851.091a11.451,11.451,0,0,1-8.106-3.479,10.9,10.9,0,0,1-3.242-7.837c.112-6.385.095-12.882.078-19.165-.01-3.8-.019-7.6,0-11.407a1.715,1.715,0,0,0-.188-1,.894.894,0,0,0-.607-.147c-.079,0-.163,0-.251.01-.6.043-1.21.056-1.817.056-.448,0-.9-.007-1.347-.013s-.888-.015-1.331-.015h-.278a4.8,4.8,0,0,1-4.509-2.666,4.616,4.616,0,0,1,.356-5.37c3.2-3.982,6.107-7.555,9.311-10.962a7.008,7.008,0,0,1,5.256-2.149h.564c.522,0,1.045,0,1.567-.011s1.051-.01,1.575-.01c.751,0,1.5.011,2.248.046l.168,0a.9.9,0,0,0,.6-.138,1.388,1.388,0,0,0,.165-.872q-.04-13.816-.022-27.634v-7.69c0-.6,0-1.2.007-1.807.008-1.349.017-2.7-.017-4.047a7.668,7.668,0,0,1,2.4-5.862q5.353-5.249,10.749-10.449l4.562-4.421a9.445,9.445,0,0,1,3.316-1.86l.19-.074h55.59l.068.019c3.935,1.142,6.267,4.447,6.238,8.839-.087,13.3-.073,26.826-.059,39.906q.007,7.255.01,14.51a4.282,4.282,0,0,0,.108,1.445,4.112,4.112,0,0,0,1.38.1l3.152.01c.652,0,1.3,0,1.956-.016h.177a7.193,7.193,0,0,1,5.667,2.467c3.079,3.52,6.067,7.047,8.881,10.483a4.725,4.725,0,0,1,.5,5.469,4.8,4.8,0,0,1-4.526,2.734l-.587,0c-.426,0-.851,0-1.278.01s-.858.01-1.286.01c-.606,0-1.21-.01-1.813-.043l-.17,0a.879.879,0,0,0-.544.125,1.329,1.329,0,0,0-.154.817c.012,3.6,0,7.2-.01,10.8-.019,6.524-.04,13.271.084,19.9a11.109,11.109,0,0,1-3.254,7.9,11.474,11.474,0,0,1-8.105,3.487Zm-23.592-43.232q0,19.221-.018,38.443c0,.338.068.442.1.471.1.1.494.1.623.1,2.828-.006,5.639-.006,8.451-.006h1.547q6.3,0,12.6-.021a7.548,7.548,0,0,0,4.039-1.012c2.315-1.433,3.441-3.645,3.442-6.763v-8.547c0-7.174,0-14.347.03-21.519a1.23,1.23,0,0,0-.16-.78c-.1-.106-.356-.154-.789-.154-1.818.019-3.567.024-5.315.024l-5.239,0q-1.5,0-2.992.006a10.486,10.486,0,0,1-7.828-3.32c-.838-.868-1.624-1.8-2.384-2.706l-.589-.7c-1.458-1.716-2.909-3.439-4.415-5.227l-1.092-1.295Zm-66,.223a1.5,1.5,0,0,0-.808.125c-.049.049-.13.194-.128.618q.035,8.638.024,17.274,0,6.648.011,13.3a7.061,7.061,0,0,0,3.1,6.226,8.542,8.542,0,0,0,5.071,1.243l53.277,0a4.347,4.347,0,0,0,1.211-.078,4.426,4.426,0,0,0,.072-1.176V103.207c-.007.008-.123.159-.176.222l-.551.655q-3.385,4.008-6.756,8.029a11.659,11.659,0,0,1-9.458,4.394c-7.141-.035-14.206-.043-21.268-.043l-16.631,0-6.971,0-.017-.5Zm71.974-12.834q2.573,3.037,5.138,6.079a7.114,7.114,0,0,0,5.659,2.576q5.46.029,10.921.024l12.4-.01c.788,0,1.154-.155,1.352-.572.209-.441.03-.764-.479-1.365q-1-1.186-2.011-2.365c-1.731-2.026-3.52-4.121-5.206-6.246a5.674,5.674,0,0,0-4.843-2.271c-4.016.019-7.985.026-11.953.026L263.194,99.5Zm-71.009-4.149a5.39,5.39,0,0,0-4.835,2.291,23.217,23.217,0,0,1-1.483,1.8c-.236.268-.473.537-.7.809l-1.72,2.045q-1.709,2.033-3.423,4.062c-.437.516-.54.83-.4,1.194.157.4.471.556,1.206.613.1.008.206.01.31.01H239.3a7.819,7.819,0,0,0,6.554-3.074c.851-1.086,1.765-2.144,2.647-3.168.463-.537.926-1.073,1.381-1.615,1.058-1.257,2.11-2.517,3.233-3.864l.91-1.088-28.982,0q-14.676,0-29.349-.021l-.018-.5ZM258.1,95.33q10.476,0,20.951.024h0c.454,0,.719-.052.827-.16a1.274,1.274,0,0,0,.162-.808q-.035-19.01-.024-38.02l0-16.893c0-3.279-1.552-4.875-4.743-4.878q-9.693-.007-19.387-.006-14.892,0-29.785-.018a1.135,1.135,0,0,0-.72.145c-.064.064-.138.239-.132.7.045,3.324.033,6.7.021,9.972l0,1.144a7.874,7.874,0,0,1-7.986,8.029q-2.053.007-4.108.007l-6.751,0a4.184,4.184,0,0,0-1.069.066,5.045,5.045,0,0,0-.055,1.1V94.166a4.261,4.261,0,0,0,.068,1.114,4.973,4.973,0,0,0,1.054.051Zm-51.517-45c.912,0,1.826.015,2.738.026,1.153.015,2.305.029,3.457.029,1.785,0,3.25-.035,4.608-.111,2.337-.13,3.651-1.674,3.7-4.347.03-1.67.024-3.341.018-5.014l-.006-4.686Z" transform="translate(0)" fill="#201d22"/>
      <path id="Path_13533" data-name="Path 13533" d="M267.582,47.79l-42.839.006a5.061,5.061,0,0,1-.969-.078,2.3,2.3,0,0,1-1.977-2.372,2.343,2.343,0,0,1,2.015-2.514,4.178,4.178,0,0,1,.8-.064l.512,0,43.331-.006a4.236,4.236,0,0,1,.773.059,2.493,2.493,0,0,1-.057,4.918,5.547,5.547,0,0,1-.856.056Z" transform="translate(4.191 5.679)" fill="#dd4a48"/>
      <path id="Path_13534" data-name="Path 13534" d="M268.08,63.411h-42.5a3.716,3.716,0,0,1-2.745-.817,2.3,2.3,0,0,1-.6-1.746c.04-2.192,1.888-2.451,3.275-2.457l43.145,0c.253,0,.508.006.759.028a2.492,2.492,0,0,1,.086,4.962,6.5,6.5,0,0,1-.774.038Z" transform="translate(4.233 5.752)" fill="#dd4a48"/>
      <path id="Path_13535" data-name="Path 13535" d="M225.124,79.041a4.647,4.647,0,0,1-.834-.063,2.492,2.492,0,0,1,.075-4.917,5.645,5.645,0,0,1,.85-.054l.737.009,42.684,0c.256,0,.511.006.764.028a2.313,2.313,0,0,1,2.322,2.429,2.344,2.344,0,0,1-2.382,2.549c-.2.016-.41.019-.615.019Z" transform="translate(4.235 8.974)" fill="#dd4a48"/>
      <path id="Path_13536" data-name="Path 13536" d="M213.691,68.951a6.557,6.557,0,0,1-6.675-6.69,6.537,6.537,0,0,1,6.752-6.746,6.549,6.549,0,0,1,6.686,6.683,6.539,6.539,0,0,1-6.74,6.753Zm.045-8.341a1.811,1.811,0,0,0-1.62,1.576,1.57,1.57,0,0,0,.458,1.093,1.67,1.67,0,0,0,1.112.565h0a1.757,1.757,0,0,0,1.656-1.569,1.778,1.778,0,0,0-1.566-1.665l-.041-.6Z" transform="translate(5.416 4.778)"/>
      <path id="Path_13537" data-name="Path 13537" d="M213.743,84.572a6.558,6.558,0,0,1-6.727-6.632,6.8,6.8,0,0,1,1.9-4.884,6.715,6.715,0,0,1,11.535,4.861,6.556,6.556,0,0,1-6.7,6.655Zm0-8.342a1.805,1.805,0,0,0-1.624,1.55,1.545,1.545,0,0,0,.429,1.086,1.7,1.7,0,0,0,1.114.6h0a1.619,1.619,0,0,0,.143-3.234l-.064-.6Z" transform="translate(5.416 7.763)"/>
      <path id="Path_13538" data-name="Path 13538" d="M207.281,133.887q-3.925,0-7.85-.02a4.106,4.106,0,0,1-4.321-4.222c-.037-2.025-.037-4.1,0-6.174a4.079,4.079,0,0,1,4.308-4.229c1.036-.012,2.071-.015,3.107-.015l4.6.007,4.83-.007q1.466,0,2.929.01c2.82.023,4.451,1.674,4.476,4.529.018,1.905.022,3.812,0,5.716a4.084,4.084,0,0,1-4.315,4.384Q211.163,133.886,207.281,133.887Zm-6.575-9.643c-.379,0-.486.08-.509.105s-.1.136-.086.522a29.1,29.1,0,0,1-.009,3.212,1,1,0,0,0,.1.65c.048.054.2.142.663.142.975-.026,1.831-.034,2.687-.034l3.553.015,3.8-.015c.9,0,1.8.007,2.7.031h.013c.363,0,.566-.045.641-.123.038-.041.126-.187.1-.65-.066-1.16-.038-2.321-.006-3.2.015-.4-.057-.521-.088-.553s-.126-.1-.481-.1c-2.191.013-4.365.02-6.539.02s-4.349-.007-6.523-.02l-.016-.6Z" transform="translate(2.764 14.7)"/>
      <path id="Path_13539" data-name="Path 13539" d="M233.21,123.845q-.961,0-1.924-.012a3.092,3.092,0,0,1-2.291-.806,2.315,2.315,0,0,1-.584-1.757c.038-.915.452-2.45,2.8-2.45l5.2.006,4.987-.006c2.354,0,2.77,1.532,2.81,2.445a2.309,2.309,0,0,1-.584,1.76,3.081,3.081,0,0,1-2.289.808q-1.005.013-2.013.012l-3.085-.006Z" transform="translate(9.268 14.511)" fill="#dd4a48"/>
      <path id="Path_13540" data-name="Path 13540" d="M233.161,130.415l-1.945,0c-2.356,0-2.769-1.535-2.807-2.45a2.363,2.363,0,0,1,.6-1.782,2.843,2.843,0,0,1,2.129-.776q2.57-.02,5.142-.02,2.6,0,5.2.02a2.874,2.874,0,0,1,2.126.778,2.361,2.361,0,0,1,.6,1.785c-.041.913-.457,2.444-2.785,2.444Z" transform="translate(9.268 17.556)" fill="#dd4a48"/>
    </g>
  </g>
</svg>
