<svg xmlns="http://www.w3.org/2000/svg" xmlns:xlink="http://www.w3.org/1999/xlink" width="130" height="130" viewBox="0 0 130 130">
  <defs>
    <clipPath id="clip-Rating">
      <rect width="130" height="130"/>
    </clipPath>
  </defs>
  <g id="Rating" clip-path="url(#clip-Rating)">
    <g id="Group_7459" data-name="Group 7459" transform="translate(-449.172 -36.294)">
      <g id="Group_7458" data-name="Group 7458" transform="translate(452.172 36.294)">
        <path id="Path_13545" data-name="Path 13545" d="M482.293,155.255a11.445,11.445,0,0,1-10.509-9.186,14.183,14.183,0,0,1,.83-6.733q1.769-5.5,3.549-11,1.851-5.727,3.7-11.457c1.273-3.964.462-6.466-2.894-8.925l-.325-.238q-9.54-6.987-19.1-13.952c-3.692-2.683-5.322-5.962-5.127-10.318.229-5.127,5.164-10.017,10.154-10.06q5.4-.048,10.8-.042l14.436.014c4.455,0,6.721-1.649,8.082-5.867q.993-3.077,2-6.15c1.671-5.1,3.4-10.383,4.969-15.633,1.6-5.333,4.4-8.249,9.055-9.41h4.394c.269.092.539.181.809.269a13.894,13.894,0,0,1,2.473.978A11.368,11.368,0,0,1,524.85,44.3l7.375,22.838c1.52,4.707,3.617,6.219,8.625,6.219l14.222,0q4.852,0,9.7.006A10.982,10.982,0,0,1,571.8,92.972c-4.185,3.249-8.594,6.4-12.858,9.457l-1.5,1.073a2.739,2.739,0,0,1-1.578.558,2.158,2.158,0,0,1-1.754-.944,2.274,2.274,0,0,1,.721-3.279c2.73-2.044,5.487-4.047,8.245-6.053q1.975-1.433,3.944-2.873c.68-.5,1.352-1,2.01-1.526a6.353,6.353,0,0,0,2.133-6.749A6.155,6.155,0,0,0,566.193,78a13.251,13.251,0,0,0-2.758-.248c-2.48,0-4.856-.013-7.231-.026s-4.772-.024-7.158-.024c-3.66,0-6.672.031-9.481.095l-.285,0a11.4,11.4,0,0,1-11.018-8.122q-2.3-7.233-4.648-14.449-1.5-4.642-3-9.287a6.91,6.91,0,0,0-4.442-4.905,7.138,7.138,0,0,0-2.123-.332,6.607,6.607,0,0,0-6.3,4.866q-1.164,3.559-2.3,7.128c-1.083,3.383-2.166,6.765-3.291,10.133-.327.978-.617,1.972-.908,2.967a25.908,25.908,0,0,1-2.636,6.727,10.318,10.318,0,0,1-9.144,5.21q-5.113.031-10.227.027l-14.218-.005a19.878,19.878,0,0,0-2.356.169,6.149,6.149,0,0,0-5.4,4.553,6.344,6.344,0,0,0,2.318,7.1q4.008,2.977,8.041,5.918,2.211,1.619,4.43,3.231c2.6,1.89,5.2,3.779,7.777,5.693,4.8,3.562,6.245,8.064,4.409,13.764l-2.176,6.74q-2.747,8.5-5.46,17a6.773,6.773,0,0,0,.88,6.118,6.48,6.48,0,0,0,5.311,2.617,7.556,7.556,0,0,0,1.284-.111,7.261,7.261,0,0,0,3.246-1.586l.279-.21q9.594-7.024,19.172-14.072a12.091,12.091,0,0,1,6.889-2.67c.133-.005.265-.008.4-.008a12.124,12.124,0,0,1,7.25,2.589q7.31,5.309,14.641,10.594l4.692,3.392a13.893,13.893,0,0,0,1.448.969,6.8,6.8,0,0,0,3.366.926,6.424,6.424,0,0,0,3.412-1,6.35,6.35,0,0,0,3.055-5.875,9.833,9.833,0,0,0-.609-2.835l-1.382-4.1q-1.871-5.543-3.716-11.094c-.228-.689-.6-2.374.881-3.145a2.561,2.561,0,0,1,1.182-.307,2.2,2.2,0,0,1,2.058,1.58c1.044,2.846,2.019,5.8,2.963,8.656l1.014,3.056c.174.521.355,1.04.535,1.56.494,1.426.963,2.775,1.3,4.12a11.015,11.015,0,0,1-9.016,13.812,12.064,12.064,0,0,1-2.032.179,8.83,8.83,0,0,1-5.144-1.553c-4.3-2.989-8.624-6.108-12.808-9.126q-2.491-1.8-4.984-3.587-.764-.549-1.521-1.1c-.68-.5-1.36-.992-2.046-1.479a7.885,7.885,0,0,0-4.5-1.665,7.789,7.789,0,0,0-4.557,1.736l-2.835,2.081q-8.274,6.075-16.541,12.159a12.381,12.381,0,0,1-7.588,2.712Z" transform="translate(-452.108 -36.294)" fill="#201d22"/>
        <path id="Path_13546" data-name="Path 13546" d="M474.956,53.7a1.614,1.614,0,0,1-1.241-.566A27.672,27.672,0,0,1,469.6,47.78a2.142,2.142,0,0,1,.661-2.59,2.407,2.407,0,0,1,1.489-.512,1.71,1.71,0,0,1,1.141.382,27.768,27.768,0,0,1,4.464,5.807l-.005-.006c-.01,0,0,.1-.01.266l-.009.117v.118a2.112,2.112,0,0,1-1.251,2.105A3.269,3.269,0,0,1,474.956,53.7Z" transform="translate(-447.342 -33.943)" fill="#dd4a48"/>
        <path id="Path_13547" data-name="Path 13547" d="M528.428,53.749a2.409,2.409,0,0,1-1.574-.661,2.094,2.094,0,0,1-.545-2.528,30.943,30.943,0,0,1,4.078-5.327,1.981,1.981,0,0,1,1.424-.571,1.885,1.885,0,0,1,.79.166,2.166,2.166,0,0,1,1.44,2.22c-.006.078-.018.273-.019.286a17.511,17.511,0,0,1-4.82,6.17A1.215,1.215,0,0,1,528.428,53.749Z" transform="translate(-431.444 -33.947)" fill="#dd4a48"/>
        <path id="Path_13548" data-name="Path 13548" d="M549.03,106.344a1.979,1.979,0,0,1-.551-.077,50.562,50.562,0,0,1-5.75-2.037,1.884,1.884,0,0,1-1.236-2.027,2.117,2.117,0,0,1,2.142-2.173,2.64,2.64,0,0,1,.718.1,51.707,51.707,0,0,1,5.535,1.935,2.17,2.17,0,0,1,1.246,2.873A2.279,2.279,0,0,1,549.03,106.344Z" transform="translate(-427.122 -18.419)" fill="#dd4a48"/>
        <path id="Path_13549" data-name="Path 13549" d="M454.454,105.3a2.274,2.274,0,0,1-2.131-1.432,2.153,2.153,0,0,1,1.256-2.835,52.743,52.743,0,0,1,5.539-1.936,2.689,2.689,0,0,1,.718-.1,2.124,2.124,0,0,1,2.132,2.246,1.9,1.9,0,0,1-1.327,2.008,54.91,54.91,0,0,1-5.549,1.958A2.25,2.25,0,0,1,454.454,105.3Z" transform="translate(-452.172 -18.71)" fill="#dd4a48"/>
        <path id="Path_13550" data-name="Path 13550" d="M501.089,139.654a2.061,2.061,0,0,1-2.142-2.114c-.021-1.606-.038-3.724,0-5.864a2.208,2.208,0,0,1,4.4.035c.015.658.01,1.319.006,1.978v1.9c0,.65.006,1.3,0,1.953a2.065,2.065,0,0,1-2.242,2.11Z" transform="translate(-439.06 -10.101)" fill="#dd4a48"/>
      </g>
      <path id="Path_13551" data-name="Path 13551" d="M504.239,50.669a2.308,2.308,0,0,1,2.211,1.6L512.371,70.6c1.511,4.7,3.611,6.21,8.617,6.21h20.2a2.324,2.324,0,0,1,2.348,1.86,2.187,2.187,0,0,1-2.15,2.531h-.026c-1.69,0-3.355-.013-5.019-.013-2.382-.013-4.763-.026-7.158-.026-3.649,0-6.671.026-9.475.09h-.282A11.4,11.4,0,0,1,508.4,73.138c-1.524-4.827-3.086-9.629-4.648-14.443q-.822-2.539-1.642-5.089a2.25,2.25,0,0,1,2.127-2.937Z" transform="translate(13.975 4.031)" fill="#dd4a48"/>
    </g>
  </g>
</svg>
