<svg xmlns="http://www.w3.org/2000/svg" xmlns:xlink="http://www.w3.org/1999/xlink" width="130" height="130" viewBox="0 0 130 130">
  <defs>
    <clipPath id="clip-Sold_out_products">
      <rect width="130" height="130"/>
    </clipPath>
  </defs>
  <g id="Sold_out_products" clip-path="url(#clip-Sold_out_products)">
    <g id="Group_7460" data-name="Group 7460" transform="translate(-580.746 -36.789)">
      <path id="Path_13552" data-name="Path 13552" d="M581.746,68.379a6.93,6.93,0,0,1,3.7-3.686Q605.2,54.535,624.936,44.337c1.257-.648,2.522-1.283,3.758-1.968a4.208,4.208,0,0,1,4.27,0q13.682,7.093,27.39,14.137c5.729,2.956,11.433,5.963,17.2,8.85a4.258,4.258,0,0,1,2.588,4.258c-.035,8.655-.016,17.31-.014,25.966,0,1.717,0,1.717,1.732,1.976a32.6,32.6,0,0,1-.28,64.562,32.432,32.432,0,0,1-14.878-1.359,7.419,7.419,0,0,1-1.5-.614,1.861,1.861,0,0,1-1-2.309,1.829,1.829,0,0,1,2.093-1.386,8.261,8.261,0,0,1,1.56.408c9.747,3.1,18.786,1.644,26.855-4.6a27.4,27.4,0,0,0,10.836-20.407A28.507,28.507,0,0,0,649,125.116c-1.7,11.069,2.012,20.191,10.656,27.308a5.141,5.141,0,0,1,.917.84,1.9,1.9,0,0,1-.017,2.523,1.8,1.8,0,0,1-2.46.482,17.308,17.308,0,0,1-2.935-2.314,31.69,31.69,0,0,1-8.138-11.675c-.373-.933-.706-1.091-1.608-.615-3.825,2.019-7.718,3.913-11.524,5.967a6.045,6.045,0,0,1-6.144,0Q606.2,136.452,584.6,125.376a5.267,5.267,0,0,1-2.855-2.821V98.338c.75-.7,1.51-1.34,2.649-.827,1.118.5,1.191,1.459,1.189,2.508-.015,6.615.008,13.229-.024,19.845a2.005,2.005,0,0,0,1.206,2.068q20.424,10.482,40.819,21.017c1.193.615,1.26.576,1.26-.706q.007-23.836.017-47.675a1.523,1.523,0,0,0-.946-1.557c-3.823-1.932-7.623-3.907-11.438-5.855-1.127-.576-1.189-.53-1.191.811-.006,4.326,0,8.653,0,12.979,0,2.434-1.3,3.232-3.474,2.123-3.667-1.872-7.311-3.789-10.991-5.636a2.737,2.737,0,0,1-1.7-2.754c.046-5.033-.01-10.067.041-15.1a1.953,1.953,0,0,0-1.221-2.04c-3.719-1.862-7.4-3.79-11.105-5.687-1.247-.639-1.258-.628-1.259.75,0,5.865-.01,11.732.007,17.6,0,1.032-.163,1.946-1.242,2.34a2.12,2.12,0,0,1-2.6-.943Zm51.16,49.991q0,11.854,0,23.71c0,1.4.092,1.439,1.281.824,3.4-1.757,6.793-3.523,10.205-5.252a1.174,1.174,0,0,0,.747-1.549,31.543,31.543,0,0,1-.252-11.284,32.7,32.7,0,0,1,29.7-27.493c1.249-.1,1.48-.524,1.473-1.647-.041-7.654-.02-15.308-.022-22.962,0-1.491-.007-1.5-1.383-.786q-20.18,10.4-40.371,20.786a2.236,2.236,0,0,0-1.4,2.316C632.926,102.812,632.9,110.591,632.906,118.37ZM618.019,83.132c.219.469.618.535.935.7,3.54,1.842,7.1,3.642,10.617,5.532a2.394,2.394,0,0,0,2.53-.011q20.209-10.474,40.447-20.891c.272-.14.661-.176.749-.7-4.067-2.1-8.16-4.214-12.244-6.341-.542-.283-.95-.039-1.4.191q-19.454,10.03-38.91,20.058C619.832,82.144,618.931,82.643,618.019,83.132Zm25.868-30.558-12.573-6.447c-.576-.294-1.044.02-1.523.267q-3.549,1.827-7.1,3.658Q606,58.654,589.312,67.264c-.315.163-.827.222-.823.658s.51.492.827.656c3.472,1.8,6.969,3.547,10.416,5.39a2.643,2.643,0,0,0,2.771,0q18.112-9.389,36.263-18.706C640.386,54.43,641.993,53.57,643.887,52.574ZM605.556,76.939c2.326,1.2,4.415,2.221,6.444,3.351a2.388,2.388,0,0,0,2.548.031c5.524-2.892,11.078-5.728,16.621-8.586q11.8-6.086,23.605-12.182c.319-.165.817-.231.85-.641.036-.451-.486-.515-.793-.677-1.726-.915-3.5-1.749-5.194-2.716a2.472,2.472,0,0,0-2.656.018q-15.27,7.935-30.578,15.8C612.864,73.162,609.33,74.99,605.556,76.939Zm5.8,14.365c0-1.951-.017-3.9.009-5.852a1.34,1.34,0,0,0-.811-1.382c-2.114-1.06-4.212-2.152-6.3-3.258-.769-.408-1.047-.192-1.044.64q.017,5.85,0,11.7a1.315,1.315,0,0,0,.765,1.3c2.179,1.114,4.356,2.232,6.52,3.375.682.359.873.155.866-.552C611.339,95.287,611.353,93.3,611.352,91.3Z" fill="#201d22"/>
      <path id="Path_13553" data-name="Path 13553" d="M676.94,138.919a8.045,8.045,0,0,1-5.952-2.465,32.339,32.339,0,0,1-2.285-2.3c-.7-.823-1.219-.723-1.889.036a34.693,34.693,0,0,1-2.468,2.472A8.362,8.362,0,0,1,652.3,125.076c.76-.88,1.6-1.69,2.418-2.521,1.167-1.185,1.173-1.181.04-2.319-.7-.707-1.427-1.4-2.112-2.124a8.364,8.364,0,0,1-.219-11.616A8.262,8.262,0,0,1,664.2,106c.972.844,1.883,1.764,2.766,2.7.607.644,1.064.589,1.648-.025.888-.934,1.8-1.85,2.772-2.7a8.262,8.262,0,0,1,11.594.358,8.359,8.359,0,0,1,.066,11.62c-.841.921-1.73,1.8-2.642,2.651-.608.565-.555.99.018,1.542a40.1,40.1,0,0,1,2.858,2.959,7.97,7.97,0,0,1,1.241,9.079A7.889,7.889,0,0,1,676.94,138.919ZM659,107.894c-2.234.008-3.641.811-4.34,2.509a4.08,4.08,0,0,0,.731,4.648c1.492,1.563,3.066,3.049,4.558,4.613,1.192,1.251,1.166,2.232-.036,3.468-1.363,1.4-2.766,2.76-4.139,4.153-1.906,1.933-2.013,4.589-.268,6.338,1.8,1.8,4.339,1.732,6.314-.2,1.338-1.308,2.642-2.65,3.976-3.962,1.5-1.473,2.448-1.484,3.929-.035,1.4,1.367,2.747,2.782,4.156,4.136a4.226,4.226,0,0,0,6.133.1,4.329,4.329,0,0,0-.119-6.253c-1.364-1.4-2.767-2.76-4.138-4.154s-1.373-2.329-.008-3.737,2.773-2.755,4.134-4.156a4.312,4.312,0,1,0-6.115-6.063c-1.4,1.363-2.758,2.768-4.154,4.137-1.341,1.315-2.32,1.324-3.646.028-1.426-1.4-2.825-2.82-4.24-4.226A3.9,3.9,0,0,0,659,107.894Z" transform="translate(9.339 8.458)" fill="#dd4a48"/>
      <path id="Path_13554" data-name="Path 13554" d="M608.777,113.509a2.006,2.006,0,0,1-2.732,1.888c-1.184-.489-2.3-1.141-3.445-1.729q-5.312-2.734-10.622-5.47A2.052,2.052,0,0,1,590.7,106a1.988,1.988,0,0,1,3.022-1.432q6.812,3.489,13.617,6.994A2.258,2.258,0,0,1,608.777,113.509Z" transform="translate(1.219 8.523)" fill="#dd4a48"/>
    </g>
  </g>
</svg>
