<svg xmlns="http://www.w3.org/2000/svg" width="102.038" height="104.778" viewBox="0 0 102.038 104.778">
  <g id="Group_8347" data-name="Group 8347" transform="translate(-569.063 -174.608)">
    <path id="Path_7092" data-name="Path 7092" d="M631.625,279.386a11.511,11.511,0,0,1-8.014-5.738,1.022,1.022,0,0,0-.88-.622,1.581,1.581,0,0,0-.809.308,16.454,16.454,0,0,1-4.765,2.192,12.476,12.476,0,0,1-2.787.323,11.691,11.691,0,0,1-10.189-6.2q-6.509-11.234-12.992-22.482S574.4,218.1,570.861,211.953a12.058,12.058,0,0,1-.807-11.116c3.136-7.594,6.058-14.583,8.935-21.366a7.536,7.536,0,0,1,7.281-4.863,10.6,10.6,0,0,1,1.557.118c3.069.453,6.2.838,9.224,1.211,1.481.182,2.962.364,4.442.555q1.346.172,2.693.334c2.258.275,4.593.559,6.868.941a11.215,11.215,0,0,1,7.353,4.542,2.883,2.883,0,0,0,2.161,1.192c2.682.329,5.361.677,8.04,1.026l2.866.372a7.529,7.529,0,0,1,5.853,3.966q5.464,9.448,10.921,18.9l7.017,12.161q6.809,11.8,13.626,23.6c3.666,6.338,2.713,13.53-2.428,18.322a22.244,22.244,0,0,1-4.317,2.908q-.469.266-.936.533-4.862,2.813-9.727,5.617-5.749,3.318-11.5,6.64a16.556,16.556,0,0,1-4.495,1.837Zm6.343-61.539a1.79,1.79,0,0,1,1.286.535,4.67,4.67,0,0,1,.664.918q1.705,2.936,3.4,5.878l3.343,5.792q3.067,5.312,6.139,10.619a11.527,11.527,0,0,1,1.648,7.925,12.023,12.023,0,0,1-6.416,8.778q-5.226,2.98-10.43,6-5.091,2.94-10.191,5.86a1.262,1.262,0,0,0-.458,2.147,7.975,7.975,0,0,0,6.552,3.635h0a7.925,7.925,0,0,0,3.951-1.082c8.265-4.7,16.546-9.479,24.614-14.218a10.377,10.377,0,0,0,5.4-9.637,11.736,11.736,0,0,0-2.029-6.3c-.787-1.365-4.23-7.308-4.23-7.308l-4.466-7.733q-11.235-19.45-22.454-38.911a4.5,4.5,0,0,0-3.683-2.376c-1.753-.188-3.532-.427-5.253-.658l-1.977-.262c-.061-.009-.125-.024-.19-.039a1.907,1.907,0,0,0-.436-.066.739.739,0,0,0-.621.3.913.913,0,0,0,.142,1.117,1.637,1.637,0,0,1,.1.147c.911,1.585,4.84,8.383,4.84,8.383l.893,1.545c.941,1.624,1.914,3.3,2.83,4.975a1.709,1.709,0,0,1-.609,2.48,1.734,1.734,0,0,1-.856.239,1.985,1.985,0,0,1-1.574-.953c-.182-.256-.338-.532-.495-.807l-3.527-6.114q-3.78-6.55-7.571-13.095a8.554,8.554,0,0,0-6.651-4.405c-2.419-.3-4.834-.618-7.25-.94q-2.437-.324-4.876-.641l-2.42-.315c-2.584-.34-5.255-.692-7.9-.947-.412-.04-.784-.062-1.123-.062-2.309,0-3.159,1.059-4.092,3.283q-1.458,3.473-2.908,6.95-2.772,6.641-5.573,13.269a9.208,9.208,0,0,0,.6,8.708q13.05,22.543,26.059,45.109l7.006,12.138c1.7,2.952,4.224,4.577,7.1,4.577a9.531,9.531,0,0,0,4.773-1.4q8.164-4.724,16.335-9.435l7.3-4.211c.4-.229.789-.463,1.183-.7.829-.493,1.685-1,2.55-1.448a8.2,8.2,0,0,0,4.215-5.016,8.476,8.476,0,0,0-.92-6.707c-3.174-5.392-6.342-10.911-9.406-16.248l-3.367-5.861a5.884,5.884,0,0,1-.579-1.21,1.728,1.728,0,0,1,.831-2A1.6,1.6,0,0,1,637.968,217.847Z" fill="#201d22"/>
    <path id="Path_7093" data-name="Path 7093" d="M595.356,204.873a8.056,8.056,0,0,1-5.767-2.354,8.163,8.163,0,0,1-2.339-5.808,8.07,8.07,0,0,1,8.034-8.054,8.259,8.259,0,0,1,8.172,8.081,8.155,8.155,0,0,1-8.093,8.135Zm-.054-12.594a4.491,4.491,0,1,0-.02,8.981h0a4.551,4.551,0,0,0,3.277-1.295,4.5,4.5,0,0,0,1.273-3.233,4.407,4.407,0,0,0-4.53-4.453Z" fill="#dd4a48"/>
    <path id="Path_7094" data-name="Path 7094" d="M633.909,214.074a1.717,1.717,0,0,1-1.192-.529,1.742,1.742,0,0,1,1.148-3h0a1.766,1.766,0,0,1,.07,3.53Z" fill="#dd4a48"/>
  </g>
</svg>
