<svg xmlns="http://www.w3.org/2000/svg" xmlns:xlink="http://www.w3.org/1999/xlink" width="130" height="130" viewBox="0 0 130 130">
  <defs>
    <clipPath id="clip-Transaction">
      <rect width="130" height="130"/>
    </clipPath>
  </defs>
  <g id="Transaction" clip-path="url(#clip-Transaction)">
    <g id="Group_7464" data-name="Group 7464" transform="translate(-967.832 -48.129)">
      <path id="Path_13563" data-name="Path 13563" d="M1018.9,177.129a11.593,11.593,0,0,1-8.187-3.586c-1.363-1.342-2.263-2.228-3.72-2.228s-2.395.929-3.691,2.215a11.658,11.658,0,0,1-8.177,3.565,11.439,11.439,0,0,1-8.292-3.762c-1.44-1.518-2.855-3.056-4.269-4.6-1.191-1.294-2.382-2.588-3.586-3.868a3.9,3.9,0,0,1-1.115-2.913q.051-19.709.028-39.419l0-11.5q0-7.275.021-14.549c.025-11.7.051-23.8-.078-35.7a11.755,11.755,0,0,1,3.376-8.3,10.384,10.384,0,0,1,7.335-3.232c.649-.005,1.3-.035,1.946-.067.629-.03,1.256-.063,1.885-.063l41.908-.006q20.189,0,40.375.006a21.793,21.793,0,0,1,4.83.359,10.961,10.961,0,0,1,8.574,10.728l0,18.981q0,17.549.02,35.1a3.131,3.131,0,0,1-.857,2.328c-.953,1.03-1.9,2.066-2.84,3.1-1.856,2.04-3.777,4.148-5.721,6.14a10.742,10.742,0,0,1-7.744,3.271,11.611,11.611,0,0,1-6.219-1.845,2.988,2.988,0,0,0-2.048-.885,2.717,2.717,0,0,0-1.319.346,2.824,2.824,0,0,0-1.365,3.075l.006,3.024q-.011,14.477.012,28.951a3.994,3.994,0,0,1-1.167,3.017c-1.691,1.775-3.341,3.587-4.992,5.4q-1.38,1.516-2.766,3.025a11.438,11.438,0,0,1-8.422,3.838,11.6,11.6,0,0,1-8-3.341c-1.445-1.381-2.4-2.293-3.882-2.293s-2.419.9-3.843,2.254A11.554,11.554,0,0,1,1018.9,177.129Zm11.871-12.853a3.232,3.232,0,0,1,2.064,1.076c.784.774,1.56,1.56,2.337,2.345.9.914,1.8,1.828,2.722,2.726a6.253,6.253,0,0,0,9.591-.171c.89-.935,1.761-1.888,2.633-2.842,1.071-1.174,2.142-2.346,3.252-3.482a6.789,6.789,0,0,0,1.932-5.021q-.036-33.1-.03-66.192l-.006-31.486a10.571,10.571,0,0,1,.244-2.926,3.217,3.217,0,0,0-3.48-4.569q-19.534.038-39.02.029H990.218c-5.282,0-7.85,2.554-7.85,7.808v58.839q0,19.229-.026,38.455a6.637,6.637,0,0,0,2,5.014c1.741,1.745,3.444,3.626,5.09,5.446l.556.614a6.941,6.941,0,0,0,5.163,2.6,7.087,7.087,0,0,0,4.989-2.323c.944-.934,1.88-1.878,2.817-2.82l1.856-1.865a3.522,3.522,0,0,1,2.232-1.275,3.576,3.576,0,0,1,2.251,1.266c.813.8,1.614,1.6,2.414,2.409.816.821,1.632,1.642,2.458,2.453a6.44,6.44,0,0,0,9.489,0c.938-.91,1.859-1.838,2.781-2.765.762-.768,1.525-1.535,2.3-2.292A3.053,3.053,0,0,1,1030.774,164.276Zm41.113-110.563c-1.691,0-3.344.031-4.915.094-4.707.187-7,2.594-7,7.362V93.5q0,10.318-.015,20.634a5.133,5.133,0,0,0,1.637,3.963c.906.851,1.782,1.733,2.66,2.617.567.571,1.133,1.142,1.708,1.7a6.878,6.878,0,0,0,4.817,2.155,6.639,6.639,0,0,0,4.807-2.225c1.088-1.133,2.159-2.286,3.228-3.438,1.022-1.1,2.042-2.2,3.08-3.284a6.032,6.032,0,0,0,1.711-4.4q-.041-14.51-.022-29.022l0-11.881c.005-3.155.01-6.311-.014-9.465-.03-4.158-2.6-6.929-6.538-7.057C1075.227,53.742,1073.54,53.713,1071.887,53.713Z" transform="translate(0 0)" fill="#201d22"/>
      <path id="Path_13564" data-name="Path 13564" d="M1010.86,127.879a8.854,8.854,0,0,1-1.905-.163,2.267,2.267,0,0,1-1.9-2.607,2.307,2.307,0,0,1,2.306-1.934q2.282-.017,4.566-.015l17.416.008c1.241,0,2.724.392,2.746,2.228a2.319,2.319,0,0,1-.593,1.717,2.892,2.892,0,0,1-2.095.72q-4.253.032-8.505.029-4.812,0-9.622-.021h-.011c-.493,0-.9.009-1.3.02C1011.6,127.871,1011.228,127.879,1010.86,127.879Z" transform="translate(7.454 18.891)" fill="#dd4a48"/>
      <path id="Path_13565" data-name="Path 13565" d="M1020.537,94.97h-2.259v.009l-4.127.005q-2.158,0-4.317-.016a2.532,2.532,0,0,1-2.76-1.893,2.374,2.374,0,0,1,.478-1.961,2.184,2.184,0,0,1,1.7-.806q5.524-.049,11.053-.046,5.8,0,11.6.04a2.146,2.146,0,0,1,2.194,2.242,2.262,2.262,0,0,1-2.473,2.406c-1.462.031-2.927.041-4.391.041C1026.12,94.991,1021.657,94.97,1020.537,94.97Z" transform="translate(7.45 10.496)" fill="#dd4a48"/>
      <path id="Path_13566" data-name="Path 13566" d="M1020.563,111.437q-5.422,0-10.848-.031a2.819,2.819,0,0,1-2.052-.741,2.35,2.35,0,0,1-.61-1.733c.024-1.332,1.084-2.2,2.7-2.2q2.158-.009,4.314-.009h12.972q2.143,0,4.285.006c1.023,0,2.741.3,2.766,2.234a2.391,2.391,0,0,1-.6,1.726,2.868,2.868,0,0,1-2.078.719Q1025.987,111.437,1020.563,111.437Z" transform="translate(7.456 14.696)" fill="#dd4a48"/>
      <path id="Path_13567" data-name="Path 13567" d="M1001.871,74.779a2.5,2.5,0,0,1-1.8-.7,2.108,2.108,0,0,1-.6-1.551,2.23,2.23,0,0,1,2.377-2.214q2.333-.009,4.663-.008h13.636q2.321,0,4.642.006a2.24,2.24,0,1,1,.029,4.468q-5.735.011-11.474.01T1001.871,74.779Z" transform="translate(5.521 5.403)" fill="#dd4a48"/>
      <path id="Path_13568" data-name="Path 13568" d="M995.989,127.89a8.03,8.03,0,0,1-1.792-.2,2.383,2.383,0,0,1-1.785-2.293,2.427,2.427,0,0,1,2.153-2.215c.147-.01.295-.013.443-.013l1.038.013c2.868,0,3.127.831,3.376,1.634a2.239,2.239,0,0,1-.193,1.8,2.216,2.216,0,0,1-1.428,1.071A7.908,7.908,0,0,1,995.989,127.89Z" transform="translate(3.719 18.892)" fill="#dd4a48"/>
      <path id="Path_13569" data-name="Path 13569" d="M996.1,95.035a8.28,8.28,0,0,1-1.848-.221,2.379,2.379,0,0,1-1.839-2.317,2.448,2.448,0,0,1,2.231-2.208c.129-.01.26-.013.392-.013l.955.013c.331-.014.546-.021.759-.021a2.766,2.766,0,0,1,1.653.373,2.273,2.273,0,0,1-.535,4.152A6.4,6.4,0,0,1,996.1,95.035Z" transform="translate(3.72 10.498)" fill="#dd4a48"/>
      <path id="Path_13570" data-name="Path 13570" d="M996.019,111.4c-2.99,0-3.316-1.14-3.473-1.687a2.328,2.328,0,0,1,2.1-2.971c.325-.021.65-.028.975-.028s.65.006.974.013l.34.006a2.343,2.343,0,1,1,.213,4.672,2.276,2.276,0,0,1-.264.011Z" transform="translate(3.731 14.693)" fill="#dd4a48"/>
    </g>
  </g>
</svg>
