<svg width="24" height="24" viewBox="0 0 24 24" fill="none" xmlns="http://www.w3.org/2000/svg">
<g clip-path="url(#clip0_143_9063)">
<path d="M12 0V1H23V23H12V24H24V0H12Z" fill="#4FA110"/>
<path d="M19.2 11.4299C19.2 13.3395 18.4414 15.1709 17.0912 16.5211C15.7409 17.8714 13.9096 18.63 12 18.63V4.22998C13.9096 4.22998 15.7409 4.98848 17.0912 6.33875C18.4414 7.68901 19.2 9.52037 19.2 11.4299Z" fill="#4FA110"/>
<path d="M12 4.23096V18.631C10.0904 18.631 8.25908 17.8724 6.90881 16.5221C5.55855 15.1718 4.79993 13.3405 4.79993 11.4309C4.79993 9.52135 5.55855 7.69011 6.90881 6.33984C8.25908 4.98958 10.0904 4.23096 12 4.23096Z" fill="#FF4D4D"/>
<path d="M1 1V23H12V24H0V0H12V1H1Z" fill="#FF4D4D"/>
</g>
<defs>
<clipPath id="clip0_143_9063">
<rect width="24" height="24" fill="white"/>
</clipPath>
</defs>
</svg>
